<svg width="24" height="24" viewBox="0 0 24 24" fill="none" xmlns="http://www.w3.org/2000/svg">
<path d="M10.3009 13.6945L20.102 3.89705M10.5795 14.1351L12.8019 18.58C13.339 19.6541 13.6075 20.1912 13.9458 20.3352C14.2394 20.4602 14.575 20.4375 14.8492 20.2743C15.1651 20.0862 15.3591 19.5179 15.7472 18.3814L19.9463 6.08397C20.2845 5.09372 20.4535 4.59859 20.3378 4.27105C20.2371 3.98611 20.013 3.76197 19.7281 3.6613C19.4005 3.54558 18.9054 3.71465 17.9151 4.05278L5.61763 8.25193C4.48114 8.64 3.91289 8.83404 3.72478 9.14995C3.56153 9.4241 3.53891 9.7597 3.66389 10.0532C3.80791 10.3915 4.34498 10.6601 5.41912 11.1971L9.86397 13.4196C10.041 13.5081 10.1295 13.5523 10.2061 13.6114C10.2742 13.6639 10.3352 13.7249 10.3876 13.7929C10.4468 13.8696 10.491 13.9581 10.5795 14.1351Z" stroke="#E9A537" stroke-width="2.2" stroke-linecap="round" stroke-linejoin="round"/>
</svg>
