<svg width="24" height="24" viewBox="0 0 24 24" fill="none" xmlns="http://www.w3.org/2000/svg">
<g clip-path="url(#clip0_645_7254)">
<path d="M23.9517 12.2871L19.9518 3.78723C19.9018 3.68125 19.8168 3.59622 19.7118 3.54723L12.2119 0.0472495C12.0769 -0.0157498 11.9229 -0.0157498 11.7879 0.0472495L4.28797 3.54723C4.18297 3.59622 4.09799 3.68125 4.04798 3.78723L0.0479831 12.2871C-0.0250006 12.4421 -0.0130007 12.6231 0.0779828 12.7681C0.168966 12.9131 0.328996 13.0001 0.499994 13.0001H1.99998V23.5C1.99998 23.776 2.22399 24 2.49999 24H4.99995V23.786L11.9999 19.683L18.9998 23.786V24H21.4997C21.7757 24 21.9998 23.776 21.9998 23.5V13.0001H23.4997C23.6707 13.0001 23.8297 12.9131 23.9217 12.7681C24.0138 12.6231 24.0248 12.4421 23.9517 12.2871ZM8.9999 5.50021C8.9999 5.22421 9.22391 5.0002 9.49991 5.0002H14.4999C14.7759 5.0002 14.9999 5.22421 14.9999 5.50021V11.5002C14.9999 11.7762 14.7759 12.0002 14.4999 12.0002H9.49991C9.22391 12.0002 8.9999 11.7762 8.9999 11.5002V5.50021ZM4.99995 22.628V15.5801L11.0119 19.1041L4.99995 22.628ZM5.98792 15.0001H18.0118L11.9999 18.5241L5.98792 15.0001ZM18.9998 22.627L12.9879 19.1031L18.9998 15.5791V22.627Z" fill="#E9A537"/>
</g>
<defs>
<clipPath id="clip0_645_7254">
<rect width="24" height="24" fill="white"/>
</clipPath>
</defs>
</svg>
