<svg width="24" height="25" viewBox="0 0 24 25" fill="none" xmlns="http://www.w3.org/2000/svg">
<g clip-path="url(#clip0_811_18784)">
<path d="M18.227 23.4122C13.314 23.4122 8.941 19.7852 6.741 17.5842C4.486 15.3302 0.731004 10.7912 0.921004 5.7312C0.953564 4.93182 1.27638 4.17171 1.829 3.5932C2.40763 2.97797 3.031 2.40641 3.694 1.8832C4.13269 1.54793 4.67707 1.38111 5.22828 1.41304C5.77948 1.44497 6.30096 1.67353 6.698 2.0572C8.33698 3.50411 9.59348 5.33321 10.356 7.3822C10.5523 8.02883 10.4839 8.7269 10.166 9.3232L9.711 10.1762C9.67927 10.2351 9.66068 10.3003 9.65654 10.3671C9.6524 10.4339 9.66279 10.5008 9.687 10.5632C10.4554 12.406 11.9208 13.8707 13.764 14.6382C13.8262 14.6628 13.893 14.6734 13.9597 14.6693C14.0264 14.6651 14.0914 14.6463 14.15 14.6142L15.003 14.1592C15.5989 13.8412 16.2967 13.7729 16.943 13.9692C18.9925 14.7314 20.8219 15.9879 22.269 17.6272C22.652 18.0244 22.8802 18.5456 22.9121 19.0965C22.944 19.6474 22.7776 20.1914 22.443 20.6302C21.9193 21.2931 21.3478 21.9167 20.733 22.4962C20.1547 23.0495 19.3946 23.373 18.595 23.4062C18.4724 23.4104 18.3497 23.4124 18.227 23.4122ZM5.083 3.4122C5.02288 3.4111 4.9641 3.43011 4.916 3.4662C4.33452 3.92673 3.78771 4.42942 3.28 4.9702C3.06233 5.19582 2.93435 5.49303 2.92 5.8062C2.759 10.1072 6.13 14.1462 8.155 16.1702C10.18 18.1942 14.215 21.5732 18.521 21.4062C18.8339 21.3921 19.1309 21.264 19.356 21.0462C19.8966 20.5379 20.3993 19.9908 20.86 19.4092C20.901 19.3461 20.9188 19.2706 20.9102 19.1958C20.9016 19.1209 20.8673 19.0514 20.813 18.9992C19.5951 17.6215 18.0675 16.5526 16.356 15.8802C16.2185 15.8403 16.0709 15.8561 15.945 15.9242L15.091 16.3792C14.7753 16.5487 14.4262 16.6469 14.0684 16.667C13.7106 16.687 13.3527 16.6284 13.02 16.4952C11.8563 16.0143 10.799 15.3085 9.90859 14.4182C9.01816 13.528 8.31215 12.4708 7.831 11.3072C7.69801 10.9745 7.63939 10.6167 7.65925 10.259C7.67912 9.90122 7.77699 9.55214 7.946 9.2362L8.402 8.3812C8.46957 8.25547 8.48501 8.10822 8.445 7.9712C7.77276 6.25958 6.70419 4.73177 5.327 3.5132C5.26125 3.45021 5.17406 3.41447 5.083 3.4132V3.4122Z" fill="#262626"/>
</g>
<defs>
<clipPath id="clip0_811_18784">
<rect width="24" height="24" fill="white" transform="translate(0 0.5)"/>
</clipPath>
</defs>
</svg>
