<svg width="24" height="24" viewBox="0 0 24 24" fill="none" xmlns="http://www.w3.org/2000/svg">
<path d="M11.5865 3.11315L3.5777 5.8963C2.69787 6.20205 2.6771 7.4388 3.54616 7.77392L11.5552 10.8623C11.7851 10.951 12.0395 10.9517 12.2698 10.8642L20.4076 7.77592C21.2832 7.44362 21.2625 6.19786 20.3764 5.89479L12.2384 3.11155C12.027 3.03926 11.7975 3.03983 11.5865 3.11315Z" stroke="#4D4D4D" stroke-width="2.5" stroke-linejoin="round"/>
<path d="M2.71484 11.8368L11.5079 15.8322C11.7688 15.9508 12.0681 15.9517 12.3298 15.8347L21.2698 11.8368" stroke="#4D4D4D" stroke-width="2.5" stroke-linecap="round" stroke-linejoin="round"/>
<path d="M2.71484 16.3271L11.5079 20.3225C11.7688 20.4411 12.0681 20.442 12.3298 20.325L21.2698 16.3271" stroke="#4D4D4D" stroke-width="2.5" stroke-linecap="round" stroke-linejoin="round"/>
</svg>
