<svg width="24" height="24" viewBox="0 0 24 24" fill="none" xmlns="http://www.w3.org/2000/svg">
<path d="M11.5865 3.11317L3.5777 5.89632C2.69787 6.20207 2.6771 7.43882 3.54616 7.77394L11.5552 10.8624C11.7851 10.951 12.0395 10.9517 12.2698 10.8643L20.4076 7.77594C21.2832 7.44364 21.2625 6.19787 20.3764 5.89481L12.2384 3.11156C12.027 3.03928 11.7975 3.03984 11.5865 3.11317Z" stroke="#E9A537" stroke-width="2.5" stroke-linejoin="round"/>
<path d="M2.71484 11.8369L11.5079 15.8323C11.7688 15.9509 12.0681 15.9518 12.3298 15.8348L21.2698 11.8369" stroke="#E9A537" stroke-width="2.5" stroke-linecap="round" stroke-linejoin="round"/>
<path d="M2.71484 16.3271L11.5079 20.3225C11.7688 20.4411 12.0681 20.442 12.3298 20.325L21.2698 16.3271" stroke="#E9A537" stroke-width="2.5" stroke-linecap="round" stroke-linejoin="round"/>
</svg>
