<svg width="24" height="24" viewBox="0 0 24 24" fill="none" xmlns="http://www.w3.org/2000/svg">
<path d="M9.81899 8.72852C10.4213 8.72852 10.9095 9.21675 10.9095 9.81903C10.9095 10.4213 10.4213 10.9096 9.81899 10.9096C9.21675 10.9096 8.72852 10.4213 8.72852 9.81903C8.72852 9.21675 9.21675 8.72852 9.81899 8.72852Z" fill="#4D4D4D"/>
<path d="M13.0906 14.1813C13.0906 14.7836 13.5789 15.2719 14.1811 15.2719C14.7834 15.2719 15.2716 14.7836 15.2716 14.1813C15.2716 13.579 14.7834 13.0908 14.1811 13.0908C13.5789 13.0908 13.0906 13.579 13.0906 14.1813Z" fill="#4D4D4D"/>
<path d="M10.5901 14.9522L14.9522 10.5902C15.3781 10.1643 15.3781 9.4738 14.9522 9.04792C14.5263 8.62205 13.8359 8.62205 13.41 9.04792L9.04792 13.41C8.62205 13.8359 8.62205 14.5264 9.04792 14.9522C9.4738 15.3781 10.1642 15.3781 10.5901 14.9522Z" fill="#4D4D4D"/>
<path fill-rule="evenodd" clip-rule="evenodd" d="M16.7019 3.3538L15.4578 3.65214L14.789 2.56143C13.5124 0.479523 10.4875 0.479523 9.21101 2.56143L8.54221 3.65214L7.29804 3.3538C4.92325 2.78433 2.78433 4.92325 3.3538 7.29804L3.65214 8.54221L2.56143 9.21101C0.479523 10.4876 0.479523 13.5125 2.56143 14.789L3.65214 15.4578L3.3538 16.702C2.78433 19.0767 4.92325 21.2157 7.29804 20.6462L8.54221 20.3478L9.21101 21.4386C10.4875 23.5205 13.5124 23.5205 14.789 21.4386L15.4578 20.3478L16.7019 20.6462C19.0768 21.2157 21.2157 19.0767 20.6462 16.702L20.3479 15.4578L21.4386 14.789C23.5205 13.5125 23.5205 10.4876 21.4386 9.21101L20.3479 8.54221L20.6462 7.29804C21.2157 4.92325 19.0768 2.78433 16.7019 3.3538ZM11.0703 3.70151C11.4958 3.00754 12.5041 3.00754 12.9296 3.70151L14.0124 5.46729C14.2592 5.86987 14.7372 6.06782 15.1964 5.95771L17.2106 5.47471C18.0022 5.28489 18.7152 5.99786 18.5253 6.78946L18.0423 8.80365C17.9322 9.26286 18.1301 9.74077 18.5327 9.98759L20.2985 11.0704C20.9925 11.4959 20.9925 12.5042 20.2985 12.9297L18.5327 14.0124C18.1301 14.2593 17.9322 14.7371 18.0423 15.1963L18.5253 17.2105C18.7152 18.0021 18.0022 18.7151 17.2106 18.5252L15.1964 18.0423C14.7372 17.9322 14.2592 18.1302 14.0124 18.5327L12.9296 20.2985C12.5041 20.9924 11.4958 20.9924 11.0703 20.2985L9.98763 18.5327C9.74077 18.1302 9.26286 17.9322 8.80365 18.0423L6.78946 18.5252C5.99786 18.7151 5.28489 18.0021 5.47471 17.2105L5.95771 15.1963C6.06783 14.7371 5.86987 14.2593 5.46729 14.0124L3.70151 12.9297C3.00754 12.5042 3.00754 11.4959 3.70151 11.0704L5.46729 9.98759C5.86987 9.74077 6.06783 9.26286 5.95771 8.80365L5.47471 6.78946C5.28489 5.99786 5.99786 5.28489 6.78946 5.47471L8.80365 5.95771C9.26286 6.06782 9.74077 5.86987 9.98763 5.46729L11.0703 3.70151Z" fill="#4D4D4D"/>
</svg>
