<svg width="24" height="24" viewBox="0 0 24 24" fill="none" xmlns="http://www.w3.org/2000/svg">
<path d="M20.8649 8.53162H13.1587C12.9598 8.53162 12.769 8.61063 12.6284 8.75129C12.4877 8.89192 12.4087 9.08268 12.4087 9.28162V20.8391C12.4093 21.0378 12.4885 21.2283 12.629 21.3688C12.7696 21.5093 12.96 21.5885 13.1587 21.5891H20.8649C21.0637 21.5885 21.2541 21.5093 21.3946 21.3688C21.5351 21.2283 21.6143 21.0378 21.6149 20.8391V9.28162C21.6149 9.08268 21.5359 8.89192 21.3953 8.75129C21.2546 8.61063 21.0638 8.53162 20.8649 8.53162Z" fill="#4D4D4D"/>
<path d="M20.8649 2.11011H13.1587C12.9598 2.11011 12.769 2.18913 12.6284 2.32978C12.4877 2.47043 12.4087 2.6612 12.4087 2.86011V6.71134C12.4093 6.91009 12.4885 7.10051 12.629 7.24103C12.7696 7.38154 12.96 7.46078 13.1587 7.46134H20.8649C21.0637 7.46078 21.2541 7.38154 21.3946 7.24103C21.5351 7.10051 21.6143 6.91009 21.6149 6.71134V2.86011C21.6149 2.6612 21.5359 2.47043 21.3953 2.32978C21.2546 2.18913 21.0638 2.11011 20.8649 2.11011Z" fill="#4D4D4D"/>
<path d="M10.59 13.6691H2.88745C2.47324 13.6691 2.13745 14.0049 2.13745 14.4191V20.8392C2.13745 21.2534 2.47324 21.5892 2.88745 21.5892H10.59C11.0042 21.5892 11.34 21.2534 11.34 20.8392V14.4191C11.34 14.0049 11.0042 13.6691 10.59 13.6691Z" fill="#4D4D4D"/>
<path d="M10.5899 2.11011H2.88746C2.78887 2.10976 2.69118 2.12893 2.60003 2.1665C2.50888 2.20406 2.42606 2.25929 2.35635 2.329C2.28663 2.39872 2.2314 2.48153 2.19383 2.57268C2.15626 2.66383 2.13711 2.76152 2.13746 2.86011V11.8339C2.13746 12.0328 2.21648 12.2235 2.35713 12.3642C2.49778 12.5048 2.68854 12.5839 2.88746 12.5839H10.5899C10.7888 12.5839 10.9796 12.5048 11.1203 12.3642C11.2609 12.2235 11.3399 12.0328 11.3399 11.8339V2.86011C11.3403 2.76152 11.3211 2.66383 11.2835 2.57268C11.246 2.48153 11.1908 2.39872 11.1211 2.329C11.0513 2.25929 10.9685 2.20406 10.8774 2.1665C10.7862 2.12893 10.6885 2.10976 10.5899 2.11011Z" fill="#4D4D4D"/>
</svg>
