<svg width="14" height="20" viewBox="0 0 14 20" fill="none" xmlns="http://www.w3.org/2000/svg">
<path d="M7.00007 0.5C6.54007 0.5 6.07007 0.54 5.60007 0.64C2.84007 1.17 0.640071 3.4 0.120071 6.16C-0.359929 8.77 0.600072 11.17 2.34007 12.72C2.77007 13.1 3.00007 13.63 3.00007 14.19V16.5C3.00007 17.6 3.90007 18.5 5.00007 18.5H5.28007C5.63007 19.1 6.26007 19.5 7.00007 19.5C7.74007 19.5 8.38007 19.1 8.72007 18.5H9.00007C10.1001 18.5 11.0001 17.6 11.0001 16.5V14.19C11.0001 13.64 11.2201 13.1 11.6401 12.73C13.0901 11.45 14.0001 9.58 14.0001 7.5C14.0001 3.63 10.8701 0.5 7.00007 0.5ZM7.50007 11.5H6.50007V8.91L4.67007 7.09L5.38007 6.38L7.00007 8L8.62007 6.38L9.33007 7.09L7.50007 8.92V11.5ZM8.50007 16.5C8.49007 16.5 8.48007 16.49 8.47007 16.49V16.5H5.53007V16.49C5.52007 16.49 5.51007 16.5 5.50007 16.5C5.22007 16.5 5.00007 16.28 5.00007 16C5.00007 15.72 5.22007 15.5 5.50007 15.5C5.51007 15.5 5.52007 15.51 5.53007 15.51V15.5H8.47007V15.51C8.48007 15.51 8.49007 15.5 8.50007 15.5C8.78007 15.5 9.00007 15.72 9.00007 16C9.00007 16.28 8.78007 16.5 8.50007 16.5ZM8.50007 14.5H5.50007C5.22007 14.5 5.00007 14.28 5.00007 14C5.00007 13.72 5.22007 13.5 5.50007 13.5H8.50007C8.78007 13.5 9.00007 13.72 9.00007 14C9.00007 14.28 8.78007 14.5 8.50007 14.5Z" fill="#4D4D4D"/>
</svg>
