<svg width="24" height="25" viewBox="0 0 24 25" fill="none" xmlns="http://www.w3.org/2000/svg">
<path d="M11.9998 3.5C11.5398 3.5 11.0698 3.54 10.5998 3.64C7.83983 4.17 5.63983 6.4 5.11983 9.16C4.63983 11.77 5.59983 14.17 7.33983 15.72C7.76983 16.1 7.99983 16.63 7.99983 17.19V19.5C7.99983 20.6 8.89983 21.5 9.99983 21.5H10.2798C10.6298 22.1 11.2598 22.5 11.9998 22.5C12.7398 22.5 13.3798 22.1 13.7198 21.5H13.9998C15.0998 21.5 15.9998 20.6 15.9998 19.5V17.19C15.9998 16.64 16.2198 16.1 16.6398 15.73C18.0898 14.45 18.9998 12.58 18.9998 10.5C18.9998 6.63 15.8698 3.5 11.9998 3.5ZM12.4998 14.5H11.4998V11.91L9.66983 10.09L10.3798 9.38L11.9998 11L13.6198 9.38L14.3298 10.09L12.4998 11.92V14.5ZM13.4998 19.5C13.4898 19.5 13.4798 19.49 13.4698 19.49V19.5H10.5298V19.49C10.5198 19.49 10.5098 19.5 10.4998 19.5C10.2198 19.5 9.99983 19.28 9.99983 19C9.99983 18.72 10.2198 18.5 10.4998 18.5C10.5098 18.5 10.5198 18.51 10.5298 18.51V18.5H13.4698V18.51C13.4798 18.51 13.4898 18.5 13.4998 18.5C13.7798 18.5 13.9998 18.72 13.9998 19C13.9998 19.28 13.7798 19.5 13.4998 19.5ZM13.4998 17.5H10.4998C10.2198 17.5 9.99983 17.28 9.99983 17C9.99983 16.72 10.2198 16.5 10.4998 16.5H13.4998C13.7798 16.5 13.9998 16.72 13.9998 17C13.9998 17.28 13.7798 17.5 13.4998 17.5Z" fill="#E9A537"/>
</svg>
