<svg width="24" height="25" viewBox="0 0 24 25" fill="none" xmlns="http://www.w3.org/2000/svg">
<g clip-path="url(#clip0_811_18791)">
<path d="M12.001 23.0049C17.8 23.0049 22.501 18.3039 22.501 12.5049C22.501 6.70589 17.8 2.00488 12.001 2.00488C6.20199 2.00488 1.50098 6.70589 1.50098 12.5049C1.50098 18.3039 6.20199 23.0049 12.001 23.0049Z" stroke="#262626" stroke-width="2" stroke-linecap="round" stroke-linejoin="round"/>
<path d="M11.819 9.45898C12.5093 9.45898 13.069 8.89934 13.069 8.20898C13.069 7.51863 12.5093 6.95898 11.819 6.95898C11.1286 6.95898 10.569 7.51863 10.569 8.20898C10.569 8.89934 11.1286 9.45898 11.819 9.45898Z" fill="#262626"/>
<path d="M10.569 17.2769H13.432" stroke="#262626" stroke-width="2" stroke-linecap="round" stroke-linejoin="round"/>
<path d="M10.569 11.5498H12V17.2768" stroke="#262626" stroke-width="2" stroke-linecap="round" stroke-linejoin="round"/>
</g>
<defs>
<clipPath id="clip0_811_18791">
<rect width="24" height="24" fill="white" transform="translate(0 0.5)"/>
</clipPath>
</defs>
</svg>
