<svg width="24" height="24" viewBox="0 0 24 24" fill="none" xmlns="http://www.w3.org/2000/svg">
<g clip-path="url(#clip0_645_7258)">
<path fill-rule="evenodd" clip-rule="evenodd" d="M12.2964 0.0677597L21.5378 4.42025C21.7849 4.53742 21.943 4.7859 21.943 5.05977V12.5788C21.943 18.6988 16.6404 21.576 12.7707 23.6781L12.3345 23.9153C12.2286 23.9718 12.1129 24.0014 11.9957 24.0014C11.8799 24.0014 11.7642 23.9718 11.6583 23.9153L11.222 23.6781C7.35099 21.576 2.0498 18.6988 2.0498 12.5788V5.05975C2.0498 4.78587 2.20793 4.5374 2.45498 4.42022L11.6964 0.0677472C11.8856 -0.0226028 12.1072 -0.0225903 12.2964 0.0677597ZM9.46341 4.79152C7.26247 4.79152 5.47234 6.58306 5.47234 8.784C5.47234 10.9849 7.26247 12.7751 9.46341 12.7751C9.4874 12.7751 9.5114 12.7751 9.53541 12.7736L10.2667 13.5049H11.3128V14.9647H12.7726V16.0122L13.9175 17.1558H17.8352V13.2381L13.453 8.8546C13.4545 8.83201 13.4545 8.80801 13.4545 8.78401C13.4545 6.58307 11.6643 4.79153 9.46341 4.79153V4.79152ZM9.46341 6.2033C10.8851 6.2033 12.0427 7.36235 12.03 8.91105L11.9806 9.37694L16.4234 13.8226V15.744H14.502L14.1843 15.4278V13.5529H12.7246V12.0932H10.8512L10.0535 11.2969L9.46339 11.3633C8.04174 11.3633 6.88409 10.207 6.88409 8.784C6.88409 7.36235 8.04174 6.2033 9.46339 6.2033H9.46341ZM9.52565 7.76555C8.94119 7.76555 8.46684 8.2399 8.46684 8.82437C8.46684 9.40885 8.94119 9.8832 9.52567 9.8832C10.1101 9.8832 10.5845 9.40885 10.5845 8.82437C10.5845 8.2399 10.1101 7.76555 9.52565 7.76555Z" fill="#E9A537"/>
</g>
<defs>
<clipPath id="clip0_645_7258">
<rect width="24" height="24" fill="white"/>
</clipPath>
</defs>
</svg>
