<svg width="24" height="24" viewBox="0 0 24 24" fill="none" xmlns="http://www.w3.org/2000/svg">
<g clip-path="url(#clip0_610_3582)">
<path fill-rule="evenodd" clip-rule="evenodd" d="M12.2966 0.067775L21.538 4.42026C21.7851 4.53744 21.9432 4.78591 21.9432 5.05979V12.5788C21.9432 18.6989 16.6406 21.576 12.771 23.6781L12.3347 23.9153C12.2289 23.9718 12.1131 24.0014 11.9959 24.0014C11.8802 24.0014 11.7644 23.9718 11.6585 23.9153L11.2223 23.6781C7.35124 21.576 2.05005 18.6988 2.05005 12.5788V5.05976C2.05005 4.78589 2.20817 4.53741 2.45522 4.42024L11.6966 0.0677625C11.8858 -0.0225875 12.1075 -0.022575 12.2966 0.067775ZM9.46365 4.79154C7.26271 4.79154 5.47259 6.58307 5.47259 8.78401C5.47259 10.9849 7.26271 12.7751 9.46365 12.7751C9.48765 12.7751 9.51165 12.7751 9.53565 12.7737L10.2669 13.505H11.3131V14.9647H12.7728V16.0123L13.9178 17.1558H17.8354V13.2381L13.4533 8.85461C13.4547 8.83202 13.4547 8.80803 13.4547 8.78403C13.4547 6.58309 11.6646 4.79155 9.46365 4.79155V4.79154ZM9.46365 6.20331C10.8853 6.20331 12.0429 7.36236 12.0302 8.91106L11.9808 9.37695L16.4236 13.8226V15.744H14.5022L14.1846 15.4278V13.5529H12.7248V12.0932H10.8514L10.0537 11.297L9.46364 11.3633C8.04199 11.3633 6.88434 10.2071 6.88434 8.78401C6.88434 7.36236 8.04199 6.20331 9.46364 6.20331H9.46365ZM9.5259 7.76556C8.94144 7.76556 8.46709 8.23991 8.46709 8.82439C8.46709 9.40886 8.94144 9.88321 9.52591 9.88321C10.1104 9.88321 10.5847 9.40886 10.5847 8.82439C10.5847 8.23991 10.1104 7.76556 9.5259 7.76556Z" fill="#4D4D4D"/>
</g>
<defs>
<clipPath id="clip0_610_3582">
<rect width="24" height="24" fill="white"/>
</clipPath>
</defs>
</svg>
