<svg width="24" height="25" viewBox="0 0 24 25" fill="none" xmlns="http://www.w3.org/2000/svg">
<g clip-path="url(#clip0_610_3558)">
<path d="M19.4301 13.48C19.4701 13.16 19.5001 12.84 19.5001 12.5C19.5001 12.16 19.4701 11.84 19.4301 11.52L21.5401 9.87C21.7301 9.72 21.7801 9.45 21.6601 9.23L19.6601 5.77C19.5401 5.55 19.2701 5.47 19.0501 5.55L16.5601 6.55C16.0401 6.15 15.4801 5.82 14.8701 5.57L14.4901 2.92C14.4601 2.68 14.2501 2.5 14.0001 2.5H10.0001C9.75008 2.5 9.54008 2.68 9.51008 2.92L9.13008 5.57C8.52008 5.82 7.96008 6.16 7.44008 6.55L4.95008 5.55C4.72008 5.46 4.46008 5.55 4.34008 5.77L2.34008 9.23C2.21008 9.45 2.27008 9.72 2.46008 9.87L4.57008 11.52C4.53008 11.84 4.50008 12.17 4.50008 12.5C4.50008 12.83 4.53008 13.16 4.57008 13.48L2.46008 15.13C2.27008 15.28 2.22008 15.55 2.34008 15.77L4.34008 19.23C4.46008 19.45 4.73008 19.53 4.95008 19.45L7.44008 18.45C7.96008 18.85 8.52008 19.18 9.13008 19.43L9.51008 22.08C9.54008 22.32 9.75008 22.5 10.0001 22.5H14.0001C14.2501 22.5 14.4601 22.32 14.4901 22.08L14.8701 19.43C15.4801 19.18 16.0401 18.84 16.5601 18.45L19.0501 19.45C19.2801 19.54 19.5401 19.45 19.6601 19.23L21.6601 15.77C21.7801 15.55 21.7301 15.28 21.5401 15.13L19.4301 13.48ZM12.0001 16C10.0701 16 8.50008 14.43 8.50008 12.5C8.50008 10.57 10.0701 9 12.0001 9C13.9301 9 15.5001 10.57 15.5001 12.5C15.5001 14.43 13.9301 16 12.0001 16Z" fill="#4D4D4D"/>
</g>
<defs>
<clipPath id="clip0_610_3558">
<rect width="24" height="24" fill="white" transform="translate(0 0.5)"/>
</clipPath>
</defs>
</svg>
