<svg width="24" height="25" viewBox="0 0 24 25" fill="none" xmlns="http://www.w3.org/2000/svg">
<g clip-path="url(#clip0_811_18787)">
<path d="M14.999 3.5H4C2.34315 3.5 1 4.84315 1 6.5V18.5C1 20.1569 2.34315 21.5 4 21.5H14.999C16.6559 21.5 17.999 20.1569 17.999 18.5V6.5C17.999 4.84315 16.6559 3.5 14.999 3.5Z" stroke="#262626" stroke-width="2" stroke-linecap="round" stroke-linejoin="round"/>
<path d="M17.999 9.6458L20.494 7.3898C20.7093 7.19512 20.9765 7.0671 21.2632 7.02126C21.5498 6.97542 21.8436 7.01374 22.1089 7.13157C22.3742 7.24939 22.5996 7.44166 22.7578 7.68506C22.9159 7.92846 23.0001 8.21252 23 8.5028V16.4968C23.0001 16.7871 22.9159 17.0712 22.7578 17.3145C22.5996 17.5579 22.3742 17.7502 22.1089 17.868C21.8436 17.9859 21.5498 18.0242 21.2632 17.9783C20.9765 17.9325 20.7093 17.8045 20.494 17.6098L18 15.3538" stroke="#262626" stroke-width="2" stroke-linecap="round" stroke-linejoin="round"/>
</g>
<defs>
<clipPath id="clip0_811_18787">
<rect width="24" height="24" fill="white" transform="translate(0 0.5)"/>
</clipPath>
</defs>
</svg>
